<svg id="Layer_1" data-name="Layer 1" xmlns="http://www.w3.org/2000/svg" viewBox="0 0 188.09 86.7"><defs><style>.cls-1{fill:#ff0;}</style></defs><title>Artboard 4</title><path class="cls-1" d="M102.18,86.71A30,30,0,0,1,92.13,85.2a14.64,14.64,0,0,1-4.21-2.67,12,12,0,0,0-2.33-1.63C81.22,79,76.24,79.69,71,80.4c-1.33.18-2.68.36-4,.5-1.1.12-2.67.36-4.48.65-12.69,2-25.44,3.39-29.72-2.45C31,76.74,31,73.52,32.63,69.53a36.33,36.33,0,0,0-9.55-1.16c-4.89-.17-9.94-.34-14-3.19l-1-.71.51-1.13c3.07-6.84,10-10.75,16.65-14.53,6.4-3.63,12.47-7.06,14.42-12.67-3.13-3.27-10.6-3.06-16.13-2.9-1.61,0-3.13.09-4.41,0-1,0-2.32.05-3.73.14-5.33.34-12,.75-14.67-3.3L0,29l1-.86c13.16-11.38,30.79-17.49,43.65-22,1.19-.41,6.28-2,7.67-1.91l-.17,3,.09-1.49-.06,1.5a44.22,44.22,0,0,0-6.54,1.75C33.4,13.29,16.79,19.05,4.19,29.4c2.41,1.58,7.3,1.27,11,1,1.49-.1,2.9-.19,4-.15s2.66,0,4.23-.05c6.48-.19,15.38-.44,19.1,4.69l.43.58-.2.7c-2,7.25-9.15,11.3-16.07,15.21-5.83,3.3-11.85,6.71-14.8,12,3.16,1.69,7.11,1.83,11.27,2s8.29.29,12.07,1.95L36.7,68,36,69.36c-1.78,3.61-2.06,6.29-.83,8,3.56,4.87,18.7,2.52,26.84,1.26,1.85-.29,3.45-.53,4.63-.66s2.63-.32,3.94-.49c5.44-.74,11.07-1.5,16.2.72a13.72,13.72,0,0,1,3,2,12.48,12.48,0,0,0,3.33,2.18c6.52,2.34,15.2,1.07,22.18.06l1-.14c15.15-2.19,43.14-8.83,60.29-28.71,7.14-8.28,12.2-20.2,5-28.87-6.17-7.42-18-9.75-27.51-11.62l-3.21-.64c-12.62-2.61-26.61-3.86-44-3.94h-2l.53-1.9c.42-1.5,0-2-.2-2.21-2-2.35-11.21-1.2-17.3-.44-5.72.71-9.32,1.11-11.3.41l1-2.83c1.41.5,5.74,0,9.93-.56,8.3-1,16.88-2.1,20,1.46a4.62,4.62,0,0,1,1.09,3.09c16.85.14,30.52,1.42,42.91,4l3.19.64c9.45,1.86,22.39,4.4,29.23,12.64,8.41,10.11,2.92,23.54-5,32.75C161.08,76.16,132.31,83,116.74,85.26l-1,.15A96.4,96.4,0,0,1,102.18,86.71Z"/></svg>